<svg width="1139" height="818" viewBox="0 0 1139 818" fill="none" xmlns="http://www.w3.org/2000/svg">
<path d="M341.954 811.648C340.546 810.88 339.266 809.728 338.242 808.32C337.09 806.656 336.578 802.304 336.578 795.392V743.808C336.578 738.816 336.706 735.36 337.09 733.696C337.474 732.032 338.37 730.752 339.65 729.856C341.058 728.832 344.002 728.064 343.49 726.656C343.362 725.248 342.338 724.608 340.29 724.608H323.01C320.834 724.608 319.81 725.248 319.682 726.656C319.17 728.064 322.114 728.832 323.522 729.856C324.93 730.752 325.698 732.032 326.082 733.696C326.466 735.36 326.722 738.816 326.722 743.808V763.904C326.722 764.672 326.338 765.056 325.57 765.056H279.106C278.082 765.056 277.57 764.672 277.57 763.776V743.808C277.57 738.816 277.698 735.36 278.082 733.696C278.466 732.032 279.362 730.752 280.77 729.856C282.178 728.832 285.122 728.064 284.61 726.656C284.61 725.248 283.458 724.608 281.282 724.608H264.002C261.954 724.608 260.93 725.248 260.802 726.656C260.29 728.064 263.234 728.832 264.642 729.856C265.922 730.752 266.69 732.032 267.074 733.696C267.458 735.36 267.714 738.816 267.714 743.808V795.392C267.714 802.304 267.202 806.656 266.05 808.32C265.026 809.728 263.746 810.88 262.338 811.648C260.93 812.544 260.162 813.312 260.162 813.952C260.162 815.36 261.314 816 263.746 816H281.538C283.97 816 285.122 815.36 285.122 814.08C285.122 813.184 284.482 812.416 283.074 811.648C281.282 810.752 280.002 809.6 279.234 808.32C278.082 806.4 277.57 802.048 277.57 795.392V771.456C277.57 770.688 277.954 770.304 278.85 770.304H325.314C326.21 770.304 326.722 770.688 326.722 771.584V795.392C326.722 802.048 326.21 806.4 325.058 808.32C324.418 809.472 323.138 810.496 321.218 811.648C319.81 812.416 319.17 813.184 319.17 814.08C319.17 815.36 320.322 816 322.754 816H340.546C342.978 816 344.13 815.36 344.13 813.952C344.13 813.312 343.362 812.544 341.954 811.648ZM410.136 786.048C410.136 793.344 408.472 799.36 405.144 804.096C401.432 809.344 396.44 812.032 390.168 812.032C383.384 812.032 378.008 808.704 373.784 802.048C369.56 795.392 367.512 787.456 367.512 778.368C367.512 767.744 370.968 760.192 377.752 755.712C380.824 753.792 384.152 752.896 387.608 752.896C390.424 752.896 393.368 753.664 396.312 755.328C400.792 757.76 404.12 761.856 406.552 767.616C408.984 773.248 410.136 779.392 410.136 786.048ZM388.888 747.776C379.672 747.776 372.12 751.232 366.104 758.016C360.088 764.8 357.144 773.12 357.144 782.976C357.144 793.472 359.96 801.792 365.72 808.064C371.48 814.336 379.288 817.408 388.888 817.408C397.976 817.408 405.528 813.952 411.416 807.168C417.432 800.384 420.376 792.064 420.376 782.208C420.376 772.224 417.56 764.032 412.056 757.504C406.552 750.976 398.744 747.776 388.888 747.776ZM484.356 762.112C479.876 769.792 472.196 772.096 458.884 772.096H452.996C451.588 772.096 450.82 771.456 450.82 770.176V732.544C450.82 730.752 451.716 729.856 453.38 729.856H460.036C472.196 729.856 479.236 731.52 483.972 738.56C486.02 741.504 487.044 745.472 487.044 750.336C487.044 755.072 486.148 759.04 484.356 762.112ZM494.212 763.008C496.644 759.04 497.924 754.56 497.924 749.568C497.924 742.784 495.748 737.28 491.524 733.056C488.964 730.368 485.636 728.448 481.54 727.168C477.572 725.76 473.988 724.992 471.044 724.864C468.1 724.736 464.004 724.608 458.628 724.608H437.252C435.076 724.608 434.052 725.376 434.052 726.784C434.052 728.704 436.228 728.832 437.636 729.856C439.3 730.752 440.196 732.032 440.58 733.568C440.964 734.976 441.092 738.432 441.092 743.808V795.008C441.092 801.792 440.452 806.4 439.044 808.704C438.404 809.856 437.124 810.88 435.332 811.648C434.052 812.288 433.412 813.056 433.412 813.952C433.412 815.36 434.436 816 436.356 816H455.428C457.348 816 458.372 815.36 458.372 813.952C458.372 812.928 457.732 812.16 456.452 811.648C454.66 810.88 453.38 809.856 452.74 808.704C451.46 806.272 450.82 801.792 450.82 795.008V779.008C450.82 777.856 451.332 777.344 452.228 777.344H459.524C476.804 777.344 488.324 772.608 494.212 763.008ZM531.074 811.52C529.41 810.624 528.13 809.472 527.234 808.32C526.082 806.4 525.57 802.048 525.57 795.392V743.936C525.57 738.816 525.698 735.36 526.082 733.696C526.466 732.032 527.362 730.752 528.77 729.856C530.178 728.832 533.122 728.064 532.61 726.656C532.61 725.248 531.458 724.608 529.282 724.608H512.002C509.826 724.608 508.802 725.248 508.802 726.656C508.162 728.064 511.234 728.832 512.642 729.856C513.922 730.752 514.69 732.032 515.074 733.696C515.458 735.36 515.714 738.816 515.714 743.936V795.392C515.714 802.304 515.202 806.656 514.05 808.32C513.154 809.728 511.874 810.752 510.338 811.52C508.93 812.288 508.162 813.056 508.162 813.952C508.162 815.36 509.314 816 511.746 816H529.538C531.97 816 533.122 815.36 533.122 813.952C533.122 813.056 532.482 812.16 531.074 811.52Z" fill="black"/>
<path d="M521.805 581.234C477.375 646.707 392.09 670.572 318.951 640.411C216.548 598.183 5.72914 492.699 83.2986 365.511C184.407 199.737 526.9 -164.538 566.762 120.918C593.04 309.993 587.442 484.414 521.805 581.234Z" fill="#EAD9D1"/>
<path d="M726.364 253.729C782.982 198.999 870.887 193.159 935.944 237.488C1027.03 299.551 1210.77 445.4 1109.29 553.505C977.028 694.404 569.239 979.45 588.671 693.13C601.664 503.508 642.702 334.677 726.364 253.729Z" fill="#D4E3DE"/>
<path d="M677.32 51H672.712V35.976H652.456V51H647.8V17.4H652.456V31.704H672.712V17.4H677.32V51ZM696.875 51.672C693.195 51.672 690.171 50.456 687.803 48.024C685.435 45.56 684.251 42.568 684.251 39.048C684.251 35.56 685.467 32.568 687.899 30.072C690.331 27.576 693.355 26.328 696.971 26.328C700.683 26.328 703.707 27.544 706.043 29.976C708.411 32.376 709.595 35.352 709.595 38.904C709.595 42.424 708.379 45.432 705.947 47.928C703.547 50.424 700.523 51.672 696.875 51.672ZM705.179 38.904C705.179 36.408 704.395 34.344 702.827 32.712C701.291 31.048 699.339 30.216 696.971 30.216C694.571 30.216 692.587 31.064 691.019 32.76C689.483 34.424 688.715 36.52 688.715 39.048C688.715 41.544 689.483 43.624 691.019 45.288C692.587 46.952 694.539 47.784 696.875 47.784C699.275 47.784 701.259 46.936 702.827 45.24C704.395 43.544 705.179 41.432 705.179 38.904ZM720.312 51H715.992V16.152L720.312 14.568V51ZM731.089 15.432C731.921 15.432 732.625 15.72 733.201 16.296C733.777 16.872 734.065 17.576 734.065 18.408C734.065 19.24 733.777 19.944 733.201 20.52C732.625 21.096 731.921 21.384 731.089 21.384C730.257 21.384 729.553 21.096 728.977 20.52C728.401 19.944 728.113 19.24 728.113 18.408C728.113 17.576 728.401 16.872 728.977 16.296C729.553 15.72 730.257 15.432 731.089 15.432ZM733.249 51H728.929V27H733.249V51ZM751.035 36.984C754.203 37.72 756.395 38.648 757.611 39.768C758.859 40.888 759.483 42.424 759.483 44.376C759.483 46.456 758.571 48.168 756.747 49.512C754.955 50.856 752.651 51.528 749.835 51.528C748.139 51.528 746.523 51.288 744.987 50.808C743.451 50.328 741.931 49.592 740.427 48.6L739.515 43.368L739.611 43.32C741.403 44.728 743.211 45.8 745.035 46.536C746.859 47.272 748.619 47.64 750.315 47.64C751.755 47.64 752.939 47.368 753.867 46.824C754.827 46.248 755.307 45.512 755.307 44.616C755.307 43.656 754.859 42.904 753.963 42.36C753.099 41.816 751.371 41.24 748.779 40.632C745.675 39.896 743.515 38.984 742.299 37.896C741.083 36.808 740.475 35.384 740.475 33.624C740.475 31.512 741.339 29.8 743.067 28.488C744.827 27.144 747.083 26.472 749.835 26.472C751.179 26.472 752.523 26.664 753.867 27.048C755.211 27.432 756.491 27.976 757.707 28.68V33.288H757.611C756.107 32.328 754.651 31.608 753.243 31.128C751.867 30.616 750.571 30.36 749.355 30.36C747.915 30.36 746.763 30.616 745.899 31.128C745.067 31.64 744.651 32.312 744.651 33.144C744.651 34.04 745.083 34.76 745.947 35.304C746.811 35.816 748.507 36.376 751.035 36.984ZM781.222 45.24L780.262 49.848C779.558 50.36 778.726 50.76 777.766 51.048C776.806 51.368 775.814 51.528 774.79 51.528C772.518 51.528 770.726 50.824 769.414 49.416C768.102 48.008 767.446 46.04 767.446 43.512V30.696H763.366V27H767.446V21.624L771.718 20.04V27H781.126V30.696H771.718V43.32C771.718 44.76 772.054 45.848 772.726 46.584C773.398 47.288 774.39 47.64 775.702 47.64C776.598 47.64 777.494 47.448 778.39 47.064C779.286 46.648 780.198 46.024 781.126 45.192L781.222 45.24ZM789.683 15.432C790.515 15.432 791.219 15.72 791.795 16.296C792.371 16.872 792.659 17.576 792.659 18.408C792.659 19.24 792.371 19.944 791.795 20.52C791.219 21.096 790.515 21.384 789.683 21.384C788.851 21.384 788.147 21.096 787.571 20.52C786.995 19.944 786.707 19.24 786.707 18.408C786.707 17.576 786.995 16.872 787.571 16.296C788.147 15.72 788.851 15.432 789.683 15.432ZM791.843 51H787.523V27H791.843V51ZM819.613 43.848L818.845 48.84C817.533 49.736 816.173 50.424 814.765 50.904C813.357 51.352 811.933 51.576 810.493 51.576C806.877 51.576 803.933 50.408 801.661 48.072C799.389 45.736 798.253 42.728 798.253 39.048C798.253 35.464 799.453 32.472 801.853 30.072C804.285 27.64 807.341 26.424 811.021 26.424C812.621 26.424 814.077 26.664 815.389 27.144C816.701 27.592 817.933 28.312 819.085 29.304V34.632H818.989C817.549 33.16 816.173 32.088 814.861 31.416C813.581 30.744 812.269 30.408 810.925 30.408C808.589 30.408 806.637 31.24 805.069 32.904C803.501 34.568 802.717 36.6 802.717 39C802.717 41.496 803.453 43.56 804.925 45.192C806.429 46.792 808.349 47.592 810.685 47.592C812.093 47.592 813.581 47.256 815.149 46.584C816.717 45.88 818.173 44.952 819.517 43.8L819.613 43.848ZM862.894 51.672C857.934 51.672 853.774 49.992 850.414 46.632C847.054 43.272 845.374 39.144 845.374 34.248C845.374 29.32 847.07 25.176 850.462 21.816C853.854 18.424 858.03 16.728 862.99 16.728C867.918 16.728 872.062 18.408 875.422 21.768C878.782 25.128 880.462 29.256 880.462 34.152C880.462 39.08 878.766 43.24 875.374 46.632C871.982 49.992 867.822 51.672 862.894 51.672ZM862.798 21.048C859.278 21.048 856.286 22.328 853.822 24.888C851.358 27.416 850.126 30.504 850.126 34.152C850.126 37.864 851.358 41 853.822 43.56C856.286 46.088 859.31 47.352 862.894 47.352C866.414 47.352 869.422 46.088 871.918 43.56C874.446 41 875.71 37.896 875.71 34.248C875.71 30.568 874.446 27.448 871.918 24.888C869.422 22.328 866.382 21.048 862.798 21.048ZM910.742 38.52C910.742 42.2 909.558 45.272 907.19 47.736C904.854 50.168 902.022 51.384 898.694 51.384C897.414 51.384 896.182 51.176 894.998 50.76C893.846 50.344 892.678 49.704 891.494 48.84V60.168H887.174V27.576L891.494 26.616V30.504C892.838 29.096 894.166 28.088 895.478 27.48C896.79 26.84 898.23 26.52 899.798 26.52C902.87 26.52 905.462 27.672 907.574 29.976C909.686 32.248 910.742 35.096 910.742 38.52ZM906.278 38.856C906.278 36.36 905.542 34.328 904.07 32.76C902.63 31.192 900.822 30.408 898.646 30.408C897.398 30.408 896.214 30.648 895.094 31.128C893.974 31.608 892.774 32.376 891.494 33.432V45.48C892.582 46.184 893.638 46.712 894.662 47.064C895.718 47.384 896.822 47.544 897.974 47.544C900.374 47.544 902.358 46.728 903.926 45.096C905.494 43.432 906.278 41.352 906.278 38.856ZM932.347 45.24L931.387 49.848C930.683 50.36 929.851 50.76 928.891 51.048C927.931 51.368 926.939 51.528 925.915 51.528C923.643 51.528 921.851 50.824 920.539 49.416C919.227 48.008 918.571 46.04 918.571 43.512V30.696H914.491V27H918.571V21.624L922.843 20.04V27H932.251V30.696H922.843V43.32C922.843 44.76 923.179 45.848 923.851 46.584C924.523 47.288 925.515 47.64 926.827 47.64C927.723 47.64 928.619 47.448 929.515 47.064C930.411 46.648 931.323 46.024 932.251 45.192L932.347 45.24ZM940.808 15.432C941.64 15.432 942.344 15.72 942.92 16.296C943.496 16.872 943.784 17.576 943.784 18.408C943.784 19.24 943.496 19.944 942.92 20.52C942.344 21.096 941.64 21.384 940.808 21.384C939.976 21.384 939.272 21.096 938.696 20.52C938.12 19.944 937.832 19.24 937.832 18.408C937.832 17.576 938.12 16.872 938.696 16.296C939.272 15.72 939.976 15.432 940.808 15.432ZM942.968 51H938.648V27H942.968V51ZM962.386 30.408C961.266 30.408 960.194 30.728 959.17 31.368C958.178 31.976 957.01 33.032 955.666 34.536V51H951.346V27.576L955.666 26.616V31.32C956.946 29.624 958.226 28.408 959.506 27.672C960.786 26.904 962.178 26.52 963.682 26.52C965.442 26.52 966.962 26.984 968.242 27.912C969.554 28.84 970.514 30.152 971.122 31.848C972.53 29.96 973.906 28.6 975.25 27.768C976.594 26.936 978.098 26.52 979.762 26.52C982.194 26.52 984.146 27.368 985.618 29.064C987.122 30.76 987.874 33.032 987.874 35.88V51H983.506V36.312C983.506 34.456 983.058 33.016 982.162 31.992C981.266 30.936 980.034 30.408 978.466 30.408C977.346 30.408 976.258 30.728 975.202 31.368C974.178 32.008 973.01 33.08 971.698 34.584C971.73 34.712 971.746 34.872 971.746 35.064C971.746 35.224 971.746 35.496 971.746 35.88V51H967.426V36.312C967.426 34.456 966.978 33.016 966.082 31.992C965.186 30.936 963.954 30.408 962.386 30.408ZM997.949 15.432C998.781 15.432 999.485 15.72 1000.06 16.296C1000.64 16.872 1000.92 17.576 1000.92 18.408C1000.92 19.24 1000.64 19.944 1000.06 20.52C999.485 21.096 998.781 21.384 997.949 21.384C997.117 21.384 996.413 21.096 995.837 20.52C995.261 19.944 994.973 19.24 994.973 18.408C994.973 17.576 995.261 16.872 995.837 16.296C996.413 15.72 997.117 15.432 997.949 15.432ZM1000.11 51H995.789V27H1000.11V51ZM1013.05 47.256H1028.31L1026.97 51H1005.94L1005.7 50.28L1020.77 30.744H1007.38V27H1027.93L1028.12 27.672L1013.05 47.256ZM1053.62 44.664L1052.04 49.416C1050.63 50.184 1049.32 50.728 1048.1 51.048C1046.89 51.368 1045.56 51.528 1044.12 51.528C1040.31 51.528 1037.29 50.392 1035.05 48.12C1032.81 45.848 1031.69 42.808 1031.69 39C1031.69 35.48 1032.81 32.488 1035.05 30.024C1037.29 27.56 1040.07 26.328 1043.4 26.328C1046.73 26.328 1049.38 27.496 1051.37 29.832C1053.35 32.136 1054.34 35.112 1054.34 38.76C1054.34 39.08 1054.33 39.432 1054.3 39.816C1054.26 40.2 1054.23 40.488 1054.2 40.68H1036.15C1036.47 42.856 1037.37 44.552 1038.84 45.768C1040.34 46.984 1042.26 47.592 1044.6 47.592C1046.01 47.592 1047.48 47.336 1049.02 46.824C1050.58 46.28 1052.09 45.544 1053.53 44.616L1053.62 44.664ZM1043.26 30.12C1041.3 30.12 1039.66 30.808 1038.31 32.184C1037 33.56 1036.25 35.32 1036.06 37.464H1049.98C1049.78 35.16 1049.1 33.368 1047.91 32.088C1046.73 30.776 1045.18 30.12 1043.26 30.12ZM1073.77 31.224C1072.36 31.224 1070.97 31.56 1069.59 32.232C1068.25 32.904 1066.66 34.04 1064.84 35.64V51H1060.52V27.576L1064.84 26.616V32.712C1066.82 30.248 1068.37 28.616 1069.49 27.816C1070.65 27.016 1071.88 26.616 1073.19 26.616C1073.48 26.616 1073.72 26.632 1073.91 26.664C1074.13 26.696 1074.41 26.744 1074.73 26.808L1075.06 31.368C1074.84 31.304 1074.61 31.272 1074.39 31.272C1074.2 31.24 1073.99 31.224 1073.77 31.224ZM649.192 115H644.392L660.04 81.208H664.312L679.384 115H674.392L670.648 106.36H653.08L649.192 115ZM662.008 86.488L654.904 102.28H668.872L662.008 86.488ZM708.523 102.52C708.523 106.2 707.339 109.272 704.971 111.736C702.635 114.168 699.803 115.384 696.475 115.384C695.195 115.384 693.963 115.176 692.779 114.76C691.627 114.344 690.459 113.704 689.275 112.84V124.168H684.955V91.576L689.275 90.616V94.504C690.619 93.096 691.947 92.088 693.259 91.48C694.571 90.84 696.011 90.52 697.579 90.52C700.651 90.52 703.243 91.672 705.355 93.976C707.467 96.248 708.523 99.096 708.523 102.52ZM704.059 102.856C704.059 100.36 703.323 98.328 701.851 96.76C700.411 95.192 698.603 94.408 696.427 94.408C695.179 94.408 693.995 94.648 692.875 95.128C691.755 95.608 690.555 96.376 689.275 97.432V109.48C690.363 110.184 691.419 110.712 692.443 111.064C693.499 111.384 694.603 111.544 695.755 111.544C698.155 111.544 700.139 110.728 701.707 109.096C703.275 107.432 704.059 105.352 704.059 102.856ZM738.289 102.52C738.289 106.2 737.105 109.272 734.737 111.736C732.401 114.168 729.569 115.384 726.241 115.384C724.961 115.384 723.729 115.176 722.545 114.76C721.393 114.344 720.225 113.704 719.041 112.84V124.168H714.721V91.576L719.041 90.616V94.504C720.385 93.096 721.713 92.088 723.025 91.48C724.337 90.84 725.777 90.52 727.345 90.52C730.417 90.52 733.009 91.672 735.121 93.976C737.233 96.248 738.289 99.096 738.289 102.52ZM733.825 102.856C733.825 100.36 733.089 98.328 731.617 96.76C730.177 95.192 728.369 94.408 726.193 94.408C724.945 94.408 723.761 94.648 722.641 95.128C721.521 95.608 720.321 96.376 719.041 97.432V109.48C720.129 110.184 721.185 110.712 722.209 111.064C723.265 111.384 724.369 111.544 725.521 111.544C727.921 111.544 729.905 110.728 731.473 109.096C733.041 107.432 733.825 105.352 733.825 102.856Z" fill="black"/>
</svg>
